<svg xmlns="http://www.w3.org/2000/svg" fill="none" width="7000" height="7000" viewBox="0 0 70000 70000"><rect fill="#000" width="70000" height="70000" rx="35000"/><rect fill="#fff" width="62500" height="62500" x="3750" y="3750" rx="31250"/><path d="M28750 10000h10000v10000H28750" fill="#B5179E"/><path d="M33750 50000h15000v10000H33750" fill="#4CC9F0"/><path d="M18750 50000h10000v10000H18750" fill="#4895EF"/><path d="M18750 40000h10000v10000H18750" fill="#4361EE"/><path d="M38750 30000h10000v10000H38750" fill="#3F37C9"/><path d="M28750 30000h10000v10000H28750V30000Z" fill="#3A0CA3"/><path d="M18750 30000h10000v10000H18750" fill="#480CA8"/><path d="M18750 20000h10000v10000H18750" fill="#560BAD"/><path d="M18750 10000h10000v10000H18750" fill="#7209B7"/><path d="M38750 10000h10000v10000H38750" fill="#F72585"/></svg>
