<?xml version="1.0" encoding="iso-8859-1"?>
<!-- Generator: Adobe Illustrator 19.0.0, SVG Export Plug-In . SVG Version: 6.00 Build 0)  -->
<svg version="1.1" id="Capa_1" xmlns="http://www.w3.org/2000/svg" xmlns:xlink="http://www.w3.org/1999/xlink" x="0px" y="0px"
	 viewBox="0 0 490.667 490.667" style="enable-background:new 0 0 490.667 490.667;" xml:space="preserve">
<path style="fill:#455A64;" d="M245.333,0C109.839,0,0,109.839,0,245.333s109.839,245.333,245.333,245.333
	s245.333-109.839,245.333-245.333C490.514,109.903,380.764,0.153,245.333,0z"/>
<path style="fill:#FAFAFA;" d="M165.483,108.181c-5.053-3.028-11.604-1.386-14.632,3.667c-0.993,1.657-1.517,3.553-1.517,5.485v256
	c0,5.891,4.776,10.667,10.667,10.667c1.931,0.001,3.826-0.523,5.483-1.515l213.333-128c5.049-3.036,6.68-9.589,3.645-14.638
	c-0.899-1.495-2.15-2.746-3.645-3.645L165.483,108.181z"/>
<path d="M245.333,490.667C109.839,490.667,0,380.827,0,245.333S109.839,0,245.333,0s245.333,109.839,245.333,245.333
	C490.514,380.764,380.764,490.514,245.333,490.667z M245.333,21.333c-123.712,0-224,100.288-224,224s100.288,224,224,224
	s224-100.288,224-224C469.204,121.675,368.992,21.463,245.333,21.333z"/>
<path d="M160,384c-5.891,0-10.667-4.776-10.667-10.667v-256c-0.001-5.891,4.773-10.668,10.664-10.669
	c1.932,0,3.828,0.524,5.485,1.517l213.333,128c5.049,3.036,6.68,9.589,3.645,14.638c-0.899,1.495-2.15,2.746-3.645,3.645
	l-213.333,128C163.828,383.463,161.933,383.994,160,384z M170.667,136.171v218.325l181.931-109.163L170.667,136.171z"/>
<g>
</g>
<g>
</g>
<g>
</g>
<g>
</g>
<g>
</g>
<g>
</g>
<g>
</g>
<g>
</g>
<g>
</g>
<g>
</g>
<g>
</g>
<g>
</g>
<g>
</g>
<g>
</g>
<g>
</g>
</svg>
