<svg id="_x31__x2C_5" enable-background="new 0 0 24 24" height="512" viewBox="0 0 24 24" width="512" xmlns="http://www.w3.org/2000/svg"><path d="m12 18.25c-3.446 0-6.25-2.804-6.25-6.25s2.804-6.25 6.25-6.25 6.25 2.804 6.25 6.25-2.804 6.25-6.25 6.25z" fill="#eceff1"/><g fill="#00bcd4"><path d="m6.329 14.031-.154-.349c-.282-.669-.425-1.373-.425-2.091 0-2.125 1.259-4.042 3.209-4.886l.34-.147.272.25c.59.542.929 1.31.929 2.107v.456c0 1.051-1.248 1.976-2.28 2.199-.215.043-.354.167-.435.264-.102.128-.16.289-.164.469 0 .455-.481 1.612-.728 1.696-.004.001-.008.003-.012.004-.121.041-.413.028-.552.028z"/><path d="m11.892 18.401-.549-.678c-.931-1.148-.847-2.807.194-3.86.731-.731 1.864-.979 2.853-.592l.279.11c.236.094.508.009.643-.193.387-.602 1.241-.836 1.937-.445l1.002.606-.094.441c-.681 3.199-3.843 5.005-6.265 4.611z"/><path d="m14.114 9.237c-.818-1.118-.593-2.301-.384-2.902l.174-.498.507.144c1.655.468 2.97 1.724 3.519 3.359l.219.652-1.996.238c-.883.101-1.634-.314-2.039-.993z"/></g><path d="m20.5 5.375c-1.034 0-1.875-.841-1.875-1.875s.841-1.875 1.875-1.875 1.875.841 1.875 1.875-.841 1.875-1.875 1.875z" fill="#ffc107"/><path d="m20.5 6c-1.378 0-2.5-1.122-2.5-2.5s1.122-2.5 2.5-2.5 2.5 1.122 2.5 2.5-1.122 2.5-2.5 2.5zm0-3.5c-.551 0-1 .449-1 1s.449 1 1 1 1-.449 1-1-.449-1-1-1z"/><path d="m12 19c-3.86 0-7-3.14-7-7s3.14-7 7-7 7 3.14 7 7-3.14 7-7 7zm0-12.5c-3.033 0-5.5 2.467-5.5 5.5s2.467 5.5 5.5 5.5 5.5-2.467 5.5-5.5-2.467-5.5-5.5-5.5z"/><path d="m6.26 15.21c-.414 0-.755-.336-.755-.75 0-.35.236-.644.559-.727.105-.042.209-.112.312-.208.099-.104.245-.315.245-.605.014-.583.205-1.111.554-1.548.384-.461.875-.757 1.43-.867.702-.152 1.145-.545 1.145-2.025 0-.629-.269-1.237-.737-1.668-.305-.28-.325-.754-.045-1.06.281-.306.755-.325 1.06-.045.777.713 1.223 1.724 1.223 2.772 0 .739 0 2.988-2.342 3.493-.283.057-.466.22-.572.347-.134.168-.21.38-.216.618 0 .599-.246 1.193-.691 1.653-.299.284-.604.471-.932.58-.078.027-.158.04-.238.04z"/><path d="m11.82 18.99c-.219 0-.435-.095-.583-.278l-.47-.58c-1.102-1.359-1.003-3.324.229-4.57.886-.886 2.209-1.16 3.378-.701.813.322.96.098 1.091-.098.486-.756 1.475-.987 2.292-.528l.73.442c.354.214.468.676.253 1.03s-.677.468-1.03.253l-.71-.43c-.129-.073-.234-.021-.281.054-.637.956-1.608 1.179-2.896.672-.62-.243-1.298-.106-1.765.363-.691.698-.747 1.803-.127 2.567l.47.581c.261.322.211.794-.111 1.055-.137.114-.304.168-.47.168z"/><path d="m15.91 10.994c-.998 0-1.871-.489-2.384-1.35-1.097-1.499-.795-3.084-.514-3.891.137-.391.567-.598.955-.461.391.136.598.563.462.955-.226.646-.348 1.618.347 2.571.305.505.768.731 1.311.667l1.754-.209c.413-.052.785.244.833.656.049.411-.245.785-.656.833l-1.76.21c-.117.013-.233.019-.348.019z"/><path d="m21.663 6.983c-.254 0-.503-.129-.644-.364-.16-.267-.332-.526-.515-.777-.245-.334-.171-.803.163-1.048.333-.245.804-.171 1.048.163.209.287.406.583.59.889.213.355.098.816-.257 1.029-.121.073-.254.108-.385.108z"/><path d="m11.967 24s-.001 0-.002 0c-.735-.002-1.472-.071-2.19-.206-.407-.077-.675-.469-.599-.875.077-.407.47-.679.875-.599.629.118 1.274.179 1.918.181.415.001.749.338.748.752-.001.413-.337.747-.75.747zm3.06-.413c-.328 0-.629-.217-.722-.549-.111-.399.123-.813.521-.924.616-.171 1.221-.402 1.797-.686.371-.182.821-.03 1.004.342s.03.821-.342 1.004c-.66.325-1.352.589-2.057.786-.066.019-.134.027-.201.027zm-8.042-.765c-.113 0-.227-.025-.334-.079-.655-.327-1.285-.717-1.871-1.16-.331-.25-.396-.72-.147-1.05.25-.33.72-.396 1.05-.147.513.387 1.064.729 1.637 1.015.371.185.521.635.336 1.006-.131.263-.396.415-.671.415zm12.53-1.701c-.206 0-.41-.084-.558-.249-.277-.308-.252-.782.056-1.059.478-.43.918-.905 1.31-1.413.253-.328.724-.39 1.052-.137s.39.724.137 1.052c-.447.58-.95 1.123-1.495 1.613-.144.129-.324.193-.502.193zm-16.472-1.566c-.226 0-.45-.102-.597-.296-.445-.584-.837-1.212-1.167-1.866-.186-.37-.038-.821.333-1.007.368-.186.821-.038 1.007.333.288.572.631 1.121 1.021 1.632.251.33.187.8-.143 1.051-.136.103-.296.153-.454.153zm19.406-2.63c-.093 0-.187-.017-.278-.054-.385-.154-.572-.59-.418-.975.238-.596.422-1.217.547-1.846.082-.406.479-.668.882-.59.406.081.67.476.59.882-.143.719-.354 1.429-.626 2.11-.118.295-.4.473-.697.473zm-21.497-2.043c-.352 0-.667-.25-.735-.608-.138-.719-.211-1.456-.215-2.19-.002-.415.331-.752.745-.755h.005c.412 0 .748.333.75.745.004.643.067 1.288.188 1.917.079.407-.188.8-.595.878-.049.009-.096.013-.143.013zm22.262-3.019c-.388 0-.716-.299-.747-.692-.05-.642-.159-1.28-.325-1.898-.107-.4.13-.811.531-.918.399-.107.811.13.918.531.189.707.314 1.437.371 2.169.032.413-.276.774-.689.806-.019.001-.039.002-.059.002zm-22.063-2.096c-.066 0-.133-.008-.199-.027-.4-.11-.635-.523-.525-.922.194-.707.456-1.4.777-2.06.181-.374.63-.527 1.002-.346.373.181.527.63.346 1.002-.28.577-.509 1.183-.678 1.801-.092.333-.394.552-.723.552zm2.448-4.497c-.177 0-.355-.063-.499-.19-.309-.275-.336-.75-.061-1.059.488-.547 1.028-1.053 1.607-1.502.327-.255.798-.195 1.052.132.254.328.195.799-.132 1.053-.506.393-.98.836-1.407 1.315-.148.166-.354.251-.56.251zm4.183-2.952c-.297 0-.578-.177-.696-.468-.155-.384.03-.821.414-.977.68-.275 1.389-.488 2.108-.634.406-.083.802.18.884.586.083.406-.18.802-.586.884-.629.127-1.249.314-1.843.555-.092.037-.188.054-.281.054zm7.093-.448c-.063 0-.127-.008-.191-.025-.62-.163-1.259-.27-1.899-.316-.413-.03-.723-.39-.693-.803.031-.413.387-.726.803-.693.731.054 1.462.176 2.171.362.4.105.64.515.534.916-.088.336-.392.559-.725.559z"/><path d="m18.6 3.64c-.154 0-.309-.047-.442-.145-.25-.183-.51-.354-.777-.515-.355-.213-.47-.674-.257-1.029s.674-.469 1.029-.257c.306.184.603.38.889.59.334.245.408.714.163 1.048-.146.202-.374.308-.605.308z"/></svg>