<svg id="_x31__x2C_5" enable-background="new 0 0 24 24" height="512" viewBox="0 0 24 24" width="512" xmlns="http://www.w3.org/2000/svg"><path d="m12.5 18.114c-3.647 0-6.614-2.967-6.614-6.614s2.967-6.614 6.614-6.614 6.614 2.967 6.614 6.614-2.967 6.614-6.614 6.614z" fill="#ffc107"/><path d="m6 23.25c-2.895 0-5.25-2.355-5.25-5.25s2.355-5.25 5.25-5.25 5.25 2.355 5.25 5.25-2.355 5.25-5.25 5.25z" fill="#607d8b"/><path d="m6 24c-3.309 0-6-2.691-6-6s2.691-6 6-6 6 2.691 6 6-2.691 6-6 6zm0-10.5c-2.481 0-4.5 2.019-4.5 4.5s2.019 4.5 4.5 4.5 4.5-2.019 4.5-4.5-2.019-4.5-4.5-4.5z"/><path d="m14.5 18.7c-.319 0-.616-.206-.716-.527-.123-.396.097-.816.492-.939 2.526-.788 4.224-3.092 4.224-5.734 0-3.309-2.691-6-6-6-2.643 0-4.946 1.697-5.734 4.223-.122.395-.536.619-.939.493-.396-.123-.615-.543-.492-.939.982-3.156 3.862-5.277 7.165-5.277 4.136 0 7.5 3.364 7.5 7.5 0 3.302-2.12 6.182-5.276 7.166-.075.023-.151.034-.224.034z"/><path d="m12.5 3c-.414 0-.75-.336-.75-.75v-1.5c0-.414.336-.75.75-.75s.75.336.75.75v1.5c0 .414-.336.75-.75.75z"/><path d="m23.25 12.25h-1.5c-.414 0-.75-.336-.75-.75s.336-.75.75-.75h1.5c.414 0 .75.336.75.75s-.336.75-.75.75z"/><path d="m19.114 5.636c-.192 0-.384-.073-.53-.22-.293-.292-.293-.768 0-1.061l1.164-1.165c.293-.293.768-.293 1.061 0 .293.292.293.768 0 1.061l-1.164 1.165c-.147.147-.338.22-.531.22z"/><path d="m20.278 20.028c-.192 0-.384-.073-.53-.22l-1.164-1.165c-.293-.293-.293-.768 0-1.061.294-.293.769-.292 1.061 0l1.164 1.165c.293.293.293.768 0 1.061-.147.147-.339.22-.531.22z"/><path d="m5.886 5.636c-.192 0-.384-.073-.53-.22l-1.165-1.164c-.293-.293-.293-.768 0-1.061s.768-.292 1.061 0l1.164 1.165c.293.293.293.768 0 1.061-.146.146-.339.219-.53.219z"/></svg>